<svg width="250" height="250" viewBox="0 0 250 250" fill="none" xmlns="http://www.w3.org/2000/svg">
<rect x="5.74713" y="5.76923" width="239.464" height="240.385" rx="119.732" fill="#67BEE4"/>
<rect x="5.74713" y="114.423" width="239.464" height="24.0385" fill="#FFB859"/>
<ellipse cx="244.253" cy="126.442" rx="12.0192" ry="5.74713" transform="rotate(-90 244.253 126.442)" fill="#FFB859"/>
<ellipse cx="5.74713" cy="126.442" rx="12.0192" ry="5.74713" transform="rotate(-90 5.74713 126.442)" fill="#FFB859"/>
<rect x="113.027" y="5.76923" width="23.9464" height="239.423" fill="#FFB859"/>
<ellipse cx="125" cy="244.231" rx="11.9732" ry="5.76923" fill="#FFB859"/>
<ellipse cx="125" cy="5.76923" rx="11.9732" ry="5.76923" fill="#FFB859"/>
<rect x="29.6935" y="29.8077" width="191.571" height="192.308" rx="95.7854" fill="white"/>
<path d="M108.275 98.9868C109.417 112.091 108.591 124.053 106.376 132.783C105.267 137.155 103.83 140.634 102.181 143.032C100.525 145.441 98.7948 146.574 97.1146 146.722C95.4343 146.869 93.5348 146.055 91.487 143.971C89.4484 141.897 87.4314 138.722 85.5825 134.609C81.8909 126.398 79.0083 114.761 77.8663 101.657C76.7242 88.5536 77.55 76.5912 79.7652 67.861C80.8746 63.4888 82.3117 60.0105 83.9605 57.612C85.6167 55.2027 87.3465 54.07 89.0268 53.9225C90.707 53.7749 92.6066 54.5888 94.6543 56.6728C96.6929 58.7475 98.7099 61.9224 100.559 66.0348C104.25 74.2463 107.133 85.8829 108.275 98.9868Z" fill="white" stroke="black" stroke-width="3"/>
<path d="M174.367 101.657C173.225 114.761 170.342 126.398 166.651 134.609C164.802 138.722 162.785 141.897 160.746 143.971C158.699 146.055 156.799 146.869 155.119 146.722C153.439 146.574 151.709 145.441 150.053 143.032C148.404 140.634 146.967 137.155 145.857 132.783C143.642 124.053 142.816 112.091 143.958 98.9867C145.1 85.8829 147.983 74.2462 151.675 66.0348C153.523 61.9223 155.54 58.7475 157.579 56.6728C159.627 54.5888 161.526 53.7749 163.207 53.9224C164.887 54.07 166.617 55.2027 168.273 57.612C169.922 60.0105 171.359 63.4887 172.468 67.861C174.683 76.5912 175.509 88.5535 174.367 101.657Z" fill="white" stroke="black" stroke-width="3"/>
<path d="M200.008 156.25C200.008 168.123 191.925 179.134 178.296 187.257C164.699 195.362 145.817 200.423 124.88 200.423C103.943 200.423 85.0609 195.362 71.4634 187.257C57.8346 179.134 49.7515 168.123 49.7515 156.25C49.7515 144.377 57.8346 133.366 71.4634 125.243C85.0609 117.138 103.943 112.077 124.88 112.077C145.817 112.077 164.699 117.138 178.296 125.243C191.925 133.366 200.008 144.377 200.008 156.25Z" fill="white" stroke="black" stroke-width="3"/>
<ellipse cx="97.581" cy="142.308" rx="7.18391" ry="10.5769" fill="#AF5450"/>
<g style="mix-blend-mode:lighten">
<ellipse cx="97.581" cy="147.115" rx="7.18391" ry="5.76923" fill="#FB8C34"/>
</g>
<ellipse cx="97.581" cy="149.519" rx="3.35249" ry="3.36538" fill="#F7EB57"/>
<ellipse cx="155.052" cy="142.308" rx="7.18391" ry="10.5769" fill="#AF5450"/>
<g style="mix-blend-mode:lighten">
<ellipse cx="155.052" cy="147.115" rx="7.18391" ry="5.76923" fill="#FB8C34"/>
</g>
<ellipse cx="155.052" cy="149.519" rx="3.35249" ry="3.36538" fill="#F7EB57"/>
<path d="M67.5605 113.323C69.1386 110.719 67.0162 105.615 67.0162 105.615C67.0162 105.615 71.0199 100.219 68.9188 97.7385C67.6659 96.2591 66.2353 95.6699 64.2571 95.414C62.6537 95.2065 60.3269 95.199 58.8618 96.8552C58.032 97.7932 57.39 99.7901 57.39 99.7901C57.39 99.7901 55.0585 99.7495 53.7033 100.232C51.518 101.011 49.364 102.226 49.2829 104.44C49.2059 106.546 52.5721 108.559 52.5721 108.559L56.4624 110.433C56.4624 110.433 56.2916 112.702 56.9688 113.925C58.0877 115.945 60.0046 116.801 62.4019 116.7C64.8605 116.596 66.3416 115.334 67.5605 113.323Z" fill="#92DC3F" stroke="#2E982A" stroke-width="4"/>
<path d="M78.6216 122.81C74.1668 122.034 71.8186 120.675 71.8186 120.675C71.8186 120.675 69.171 119.437 67.5967 117.228C66.0223 115.018 65.8972 114.419 65.5478 112.434C65.2729 110.872 65.3394 110.109 65.572 107.439L65.5721 107.438C65.8049 104.767 65.996 102.946 66.9201 101.404C68.1967 99.275 68.8514 98.1135 71.4325 96.8022C74.0134 95.4909 78.5012 95.885 80.9493 96.1L80.9495 96.1C83.3975 96.315 88.635 97.544 94.622 99.6078C100.609 101.672 103.365 103.067 107.654 105.751C111.942 108.434 117.016 112.109 116.339 114.588C115.662 117.066 110.57 119.464 107.173 120.704C103.776 121.943 99.596 122.73 92.9682 123.301C86.3403 123.872 83.0764 123.586 78.6216 122.81Z" fill="#E39856" stroke="#A75664" stroke-width="4"/>
<path d="M182.019 103.72C181.087 106.621 184.332 111.09 184.332 111.09C184.332 111.09 181.687 117.272 184.304 119.195C185.865 120.342 187.393 120.581 189.376 120.369C190.984 120.197 193.249 119.661 194.291 117.709C194.881 116.603 195.043 114.511 195.043 114.511C195.043 114.511 197.32 114.007 198.527 113.221C200.472 111.954 202.286 110.27 201.852 108.097C201.44 106.031 197.7 104.858 197.7 104.858L193.482 103.943C193.482 103.943 193.124 101.696 192.182 100.665C190.626 98.9609 188.564 98.5751 186.255 99.2324C183.888 99.9065 182.739 101.48 182.019 103.72Z" fill="#92DC3F" stroke="#2E982A" stroke-width="4"/>
<path d="M169.065 97.0721C173.578 96.7878 176.176 97.5627 176.176 97.5627C176.176 97.5627 179.038 98.1487 181.08 99.9307C183.123 101.713 183.383 102.266 184.183 104.116C184.811 105.571 184.923 106.328 185.315 108.98L185.315 108.981C185.707 111.633 185.942 113.449 185.4 115.164C184.651 117.532 184.283 118.815 182.076 120.692C179.869 122.569 175.413 123.233 172.982 123.594L172.982 123.594C170.551 123.956 165.173 123.982 158.872 123.371C152.571 122.76 149.567 122.045 144.775 120.435C139.983 118.825 134.197 116.433 134.282 113.865C134.367 111.296 138.765 107.777 141.783 105.779C144.8 103.781 148.683 102.041 154.998 99.94C161.312 97.8387 164.553 97.3564 169.065 97.0721Z" fill="#E39856" stroke="#A75664" stroke-width="4"/>
<path d="M108.596 157.692C110.033 165.385 117.217 172.596 125.359 173.077C133.501 173.558 142.6 165.385 143.558 157.692" stroke="black" stroke-width="2"/>
</svg>
